<svg width="60" height="61" viewBox="0 0 60 61" fill="none" xmlns="http://www.w3.org/2000/svg">
<path d="M39.75 33.627C39.75 37.2168 36.8399 40.127 33.25 40.127C30.8291 40.127 28.7173 38.8035 27.5987 36.8405C27.319 36.8646 27.0359 36.877 26.75 36.877C25.765 36.877 24.8141 36.7309 23.9177 36.4592C25.1312 40.4627 28.8503 43.377 33.25 43.377C38.6348 43.377 43 39.0117 43 33.627C43 29.2272 40.0858 25.5081 36.0823 24.2947C36.3539 25.191 36.5 26.1419 36.5 27.127C36.5 27.4129 36.4877 27.6959 36.4636 27.9756C38.4265 29.0942 39.75 31.206 39.75 33.627Z" fill="#1D1D1F"/>
<path d="M36.2402 29.3722C35.3944 28.7767 34.363 28.427 33.25 28.427C33.2064 28.427 33.163 28.4275 33.1196 28.4286C32.6023 30.9741 30.5972 32.9792 28.0516 33.4966C28.0505 33.5399 28.05 33.5834 28.05 33.627C28.05 34.74 28.3997 35.7714 28.9952 36.6172C32.5769 35.7731 35.3961 32.9538 36.2402 29.3722Z" fill="#1D1D1F"/>
<path fill-rule="evenodd" clip-rule="evenodd" d="M26.75 17.377C21.3652 17.377 17 21.7422 17 27.127C17 30.9595 19.2113 34.2755 22.4276 35.8689C22.9036 36.1047 23.4016 36.3028 23.9177 36.4592C24.8141 36.7309 25.765 36.877 26.75 36.877C27.0359 36.877 27.319 36.8646 27.5987 36.8405C27.0586 35.8927 26.75 34.7959 26.75 33.627C26.75 30.0371 29.6601 27.127 33.25 27.127C34.4189 27.127 35.5158 27.4355 36.4636 27.9756C36.4877 27.6959 36.5 27.4129 36.5 27.127C36.5 26.1419 36.3539 25.191 36.0823 24.2947C35.9258 23.7786 35.7277 23.2805 35.4919 22.8045C33.8986 19.5882 30.5825 17.377 26.75 17.377ZM26.75 20.627C23.1601 20.627 20.25 23.5371 20.25 27.127C20.25 29.0121 21.0525 30.7099 22.3346 31.8971C22.699 32.2346 23.102 32.5307 23.5364 32.7783C23.9424 28.0706 27.6936 24.3193 32.4013 23.9134C32.1538 23.479 31.8576 23.0759 31.5202 22.7116C30.3329 21.4295 28.6352 20.627 26.75 20.627Z" fill="#1D1D1F"/>
<rect x="1" y="1.37695" width="58" height="58" rx="29" stroke="black" stroke-opacity="0.2" stroke-width="2"/>
</svg>
