<svg width="60" height="61" viewBox="0 0 60 61" fill="none" xmlns="http://www.w3.org/2000/svg">
<g clip-path="url(#clip0_1150_373)">
<path fill-rule="evenodd" clip-rule="evenodd" d="M42.8488 29.0845C43.1643 29.5423 43.7568 30.204 44.7318 30.6143C44.89 30.6809 45 30.8326 45 31.0043V31.5182C45 31.6482 44.9376 31.7697 44.8304 31.8433C44.3489 32.1741 42.9155 33.1247 41.4821 33.7407C40.7283 34.1187 38.718 34.8746 37.5873 35.0005C36.0796 35.1265 34.195 34.7486 31.9335 34.2447C31.9335 34.2447 31.5566 34.1187 30.4258 34.8746C29.5464 35.5045 28.6669 36.2603 27.7875 37.0162L27.7874 37.0162C26.2797 38.276 25.4003 38.9059 24.6464 39.1579C24.3952 39.2839 24.0182 39.2839 23.767 39.2839C21.8824 39.2839 19.8721 38.1501 19.3696 37.7721C19.1183 37.6461 18.9927 37.3942 18.867 37.1422C18.0506 34.9096 17.6726 32.7209 17.5 31.2774L21.2428 32.7745C21.5694 32.9051 21.9404 32.856 22.2218 32.645L24.2883 31.0951L17.8179 28.5314L17.7363 28.4495C17.485 28.1976 17.485 27.8196 17.6106 27.4417C17.637 27.4153 17.6854 27.3058 17.7629 27.1306C18.055 26.4703 18.7597 24.8773 20.2491 23.2843C21.8824 21.3946 25.0234 19.127 29.672 19.127H29.7976C38.0885 19.127 41.4823 24.5372 42.3309 27.3476L37.5163 29.423L38.8125 30.3169C39.0987 30.5143 39.4664 30.5502 39.7854 30.412L42.8488 29.0845Z" fill="#1D1D1F"/>
</g>
<rect x="1" y="1.37695" width="58" height="58" rx="29" stroke="black" stroke-opacity="0.2" stroke-width="2"/>
<defs>
<clipPath id="clip0_1150_373">
<rect width="30" height="30" fill="white" transform="translate(15 15.377)"/>
</clipPath>
</defs>
</svg>
