<svg width="60" height="61" viewBox="0 0 60 61" fill="none" xmlns="http://www.w3.org/2000/svg">
<path fill-rule="evenodd" clip-rule="evenodd" d="M22.9895 17.8771H39.6451C40.1172 17.8771 40.4993 18.2592 40.4993 18.7311V36.6643V36.6743C40.4975 36.9235 40.3884 37.1477 40.2165 37.3028C39.4541 38.0368 39.4564 39.5732 40.2183 40.306C40.4176 40.4873 40.5269 40.759 40.4919 41.0426C40.4391 41.4706 40.0765 41.7925 39.6451 41.7925H22.9895C21.3413 41.7925 20.001 40.4522 20 38.8044V20.8666C20 19.2182 21.3413 17.8771 22.9895 17.8771ZM22.9895 40.0846H38.1377C37.8696 39.2666 37.8696 38.3401 38.1377 37.5223H22.9895C22.2831 37.5223 21.7084 38.097 21.7084 38.8034C21.7084 39.5098 22.2831 40.0846 22.9895 40.0846ZM29.2461 29.4648H30.6465C30.6504 29.1679 30.6914 28.9062 30.7695 28.6796C30.8477 28.4531 30.998 28.2402 31.2207 28.041C31.4746 27.8027 31.7109 27.5664 31.9297 27.332C32.1484 27.0976 32.3242 26.8457 32.457 26.5761C32.5898 26.3027 32.6562 25.9941 32.6562 25.6503C32.6562 25.1699 32.5547 24.7597 32.3516 24.4199C32.1523 24.08 31.8613 23.8222 31.4785 23.6464C31.0996 23.4667 30.6426 23.3769 30.1074 23.3769C29.623 23.3769 29.1855 23.4628 28.7949 23.6347C28.4043 23.8027 28.0938 24.0585 27.8633 24.4023C27.6328 24.7421 27.5117 25.1679 27.5 25.6796H29.0527C29.0605 25.4335 29.1133 25.2343 29.2109 25.082C29.3086 24.9257 29.4375 24.8105 29.5977 24.7363C29.7578 24.6621 29.9277 24.625 30.1074 24.625C30.3262 24.625 30.5078 24.6679 30.6523 24.7539C30.8008 24.8359 30.9121 24.957 30.9863 25.1171C31.0645 25.2773 31.1035 25.4765 31.1035 25.7148C31.1035 25.9257 31.0625 26.1152 30.9805 26.2832C30.8984 26.4472 30.7852 26.6054 30.6406 26.7578C30.5 26.9062 30.3398 27.0644 30.1602 27.2324C29.9336 27.4472 29.7539 27.6582 29.6211 27.8652C29.4883 28.0683 29.3926 28.2968 29.334 28.5507C29.2793 28.8046 29.25 29.1093 29.2461 29.4648ZM29.334 30.7011C29.1777 30.8574 29.0996 31.0527 29.0996 31.2871C29.0996 31.5136 29.1777 31.705 29.334 31.8613C29.4941 32.0175 29.709 32.0957 29.9785 32.0957C30.248 32.0957 30.4609 32.0175 30.6172 31.8613C30.7773 31.705 30.8574 31.5136 30.8574 31.2871C30.8574 31.0527 30.7773 30.8574 30.6172 30.7011C30.4609 30.5449 30.248 30.4667 29.9785 30.4667C29.709 30.4667 29.4941 30.5449 29.334 30.7011Z" fill="black"/>
<rect x="1" y="1.37695" width="58" height="58" rx="29" stroke="black" stroke-opacity="0.1" stroke-width="2"/>
</svg>
