<svg width="60" height="61" viewBox="0 0 60 61" fill="none" xmlns="http://www.w3.org/2000/svg">
<path fill-rule="evenodd" clip-rule="evenodd" d="M26.0625 20.1394C20.4084 20.1394 15.825 24.7229 15.825 30.3769C15.825 36.0309 20.4084 40.6144 26.0625 40.6144H33.9375C39.5915 40.6144 44.1749 36.0309 44.1749 30.3769C44.1749 24.7229 39.5915 20.1394 33.9375 20.1394H26.0625ZM27.5827 27.3631C27.8951 27.0507 27.8951 26.5441 27.5827 26.2317C27.2703 25.9193 26.7637 25.9193 26.4513 26.2317L22.8718 29.8112C22.7217 29.9613 22.6374 30.1648 22.6374 30.3769C22.6374 30.5891 22.7217 30.7926 22.8718 30.9426L26.4513 34.5222C26.7637 34.8346 27.2703 34.8346 27.5827 34.5222C27.8951 34.2097 27.8951 33.7032 27.5827 33.3908L24.5688 30.3769L27.5827 27.3631ZM33.5486 26.2317C33.2362 25.9193 32.7296 25.9193 32.4172 26.2317C32.1048 26.5441 32.1048 27.0507 32.4172 27.3631L35.4311 30.3769L32.4172 33.3908C32.1048 33.7032 32.1048 34.2097 32.4172 34.5222C32.7296 34.8346 33.2362 34.8346 33.5486 34.5222L37.1281 30.9426C37.2782 30.7926 37.3624 30.5891 37.3624 30.3769C37.3624 30.1648 37.2782 29.9613 37.1281 29.8112L33.5486 26.2317Z" fill="#1D1D1F"/>
<rect x="1" y="1.37695" width="58" height="58" rx="29" stroke="black" stroke-opacity="0.2" stroke-width="2"/>
</svg>
