<svg width="60" height="61" viewBox="0 0 60 61" fill="none" xmlns="http://www.w3.org/2000/svg">
<path fill-rule="evenodd" clip-rule="evenodd" d="M16.6475 25.9879C15.5926 27.0193 15 28.4183 15 29.877C15 31.3356 15.5926 32.7346 16.6475 33.766C17.7024 34.7975 19.1332 35.377 20.625 35.377H39.375C40.8668 35.377 42.2976 34.7975 43.3525 33.766C44.4074 32.7346 45 31.3356 45 29.877C45 28.4183 44.4074 27.0193 43.3525 25.9879C42.2976 24.9564 40.8668 24.377 39.375 24.377H20.625C19.1332 24.377 17.7024 24.9564 16.6475 25.9879ZM20.8996 29.2289C21.0754 29.057 21.3139 28.9604 21.5625 28.9604H38.4375C38.6861 28.9604 38.9246 29.057 39.1004 29.2289C39.2762 29.4008 39.375 29.634 39.375 29.8771C39.375 30.1202 39.2762 30.3534 39.1004 30.5253C38.9246 30.6972 38.6861 30.7938 38.4375 30.7938H21.5625C21.3139 30.7938 21.0754 30.6972 20.8996 30.5253C20.7238 30.3534 20.625 30.1202 20.625 29.8771C20.625 29.634 20.7238 29.4008 20.8996 29.2289Z" fill="#1D1D1F"/>
<rect x="1" y="1.37695" width="58" height="58" rx="29" stroke="black" stroke-opacity="0.1" stroke-width="2"/>
</svg>
